<?xml version="1.0" standalone="no" ?>
<!DOCTYPE svg PUBLIC "-//W3C//DTD SVG 1.1//EN" "http://www.w3.org/Graphics/SVG/1.1/DTD/svg11.dtd">
<svg width="1415px" height="1660px" xmlns="http://www.w3.org/2000/svg" version="1.1" >
	<polygon points="50,250 50,550 160,550 160,825 270,825 270,1050 380,1050 380,1150 490,1150 490,1400 600,1400 600,1500 710,1500 710,1600 820,1600 820,1650 930,1650 990,1650 990,1600 930,1600 880,1600 880,1600 880,1550 880,1550 930,1550 990,1550 990,1500 930,1500 820,1500 820,1550 770,1550 770,1500 770,1450 770,1450 820,1450 990,1450 990,1400 820,1400 710,1400 710,1450 660,1450 660,1400 660,1350 660,1250 710,1250 710,1350 820,1350 990,1350 990,1250 820,1250 770,1250 770,1250 770,1200 770,1200 820,1200 990,1200 990,1150 820,1150 710,1150 710,1200 600,1200 600,1350 550,1350 550,1150 550,1100 550,1100 600,1100 990,1100 990,1050 600,1050 490,1050 490,1100 440,1100 440,1050 440,1000 440,925 490,925 490,1000 600,1000 990,1000 990,925 600,925 550,925 550,925 550,875 550,875 600,875 990,875 990,825 600,825 490,825 490,875 380,875 380,1000 330,1000 330,825 330,775 330,700 380,700 380,775 575,775 990,775 990,700 575,700 500,700 500,700 500,625 500,625 575,625 990,625 990,550 575,550 380,550 380,625 270,625 270,775 220,775 220,550 220,500 220,450 270,450 270,500 380,500 990,500 990,450 380,450 330,450 330,450 330,400 330,350 380,350 380,400 490,400 990,400 990,350 490,350 440,350 440,350 440,300 440,300 490,300 990,300 990,250 490,250 380,250 380,300 270,300 270,400 160,400 160,500 110,500 110,250 110,200 110,150 160,150 160,200 270,200 990,200 990,150 270,150 220,150 220,150 220,100 220,100 270,100 990,100 990,50 270,50 160,50 160,100 50,100 50,200 " fill="rgb(255,255,255)" stroke-width="10" stroke="rgb(120,120,120)" />
	<text x="626" y="1582" fill="rgb(0,0,0)" font-size="24" font-family="Verdana" >50390_0_Diabrotica_virgifera</text>
	<text x="574" y="1482" fill="rgb(0,0,0)" font-size="24" font-family="Verdana" >7539_0_Leptinotarsa_decemlineata</text>
	<text x="561" y="1382" fill="rgb(0,0,0)" font-size="24" font-family="Verdana" >217634_0_Anoplophora_glabripennis</text>
	<text x="678" y="1232" fill="rgb(0,0,0)" font-size="24" font-family="Verdana" >7048_0_Sitophilus_oryzae</text>
	<text x="587" y="1132" fill="rgb(0,0,0)" font-size="24" font-family="Verdana" >77166_0_Dendroctonus_ponderosae</text>
	<text x="691" y="1032" fill="rgb(0,0,0)" font-size="24" font-family="Verdana" >116153_0_Aethina_tumida</text>
	<text x="652" y="907" fill="rgb(0,0,0)" font-size="24" font-family="Verdana" >115357_0_Harmonia_axyridis</text>
	<text x="561" y="807" fill="rgb(0,0,0)" font-size="24" font-family="Verdana" >41139_0_Coccinella_septempunctata</text>
	<text x="678" y="682" fill="rgb(0,0,0)" font-size="24" font-family="Verdana" >41895_0_Tribolium_madens</text>
	<text x="652" y="532" fill="rgb(0,0,0)" font-size="24" font-family="Verdana" >7070_0_Tribolium_castaneum</text>
	<text x="561" y="432" fill="rgb(0,0,0)" font-size="24" font-family="Verdana" >110193_0_Nicrophorus_vespilloides</text>
	<text x="626" y="332" fill="rgb(0,0,0)" font-size="24" font-family="Verdana" >1629725_0_Oryctes_borbonicus</text>
	<text x="639" y="232" fill="rgb(0,0,0)" font-size="24" font-family="Verdana" >166361_0_Onthophagus_taurus</text>
	<text x="626" y="132" fill="rgb(0,0,0)" font-size="24" font-family="Verdana" >224129_0_Agrilus_planipennis</text>
	<text x="691" y="32" fill="rgb(0,0,0)" font-size="24" font-family="Verdana" >7054_0_Photinus_pyralis</text>
	<line x1="80" y1="225" x2="80" y2="125" stroke-width="3" stroke="rgb(65,170,190)" />
	<line x1="80" y1="125" x2="190" y2="125" stroke-width="3" stroke="rgb(65,170,190)" />
	<line x1="190" y1="125" x2="190" y2="175" stroke-width="3" stroke="rgb(65,170,190)" />
	<line x1="190" y1="175" x2="990" y2="175" stroke-width="3" stroke="rgb(65,170,190)" />
	<text x="1015" y="175" fill="rgb(65,170,190)" font-size="18" font-family="Verdana" >224129_0_0001a9</text>
	<line x1="190" y1="125" x2="190" y2="75" stroke-width="3" stroke="rgb(65,170,190)" />
	<line x1="190" y1="75" x2="990" y2="75" stroke-width="3" stroke="rgb(65,170,190)" />
	<text x="1015" y="75" fill="rgb(65,170,190)" font-size="18" font-family="Verdana" >7054_0_0020da</text>
	<line x1="80" y1="225" x2="80" y2="525" stroke-width="3" stroke="rgb(65,170,190)" />
	<line x1="80" y1="525" x2="190" y2="525" stroke-width="3" stroke="rgb(65,170,190)" />
	<line x1="190" y1="525" x2="190" y2="425" stroke-width="3" stroke="rgb(65,170,190)" />
	<line x1="190" y1="425" x2="300" y2="425" stroke-width="3" stroke="rgb(65,170,190)" />
	<line x1="300" y1="425" x2="300" y2="475" stroke-width="3" stroke="rgb(65,170,190)" />
	<line x1="300" y1="475" x2="990" y2="475" stroke-width="3" stroke="rgb(65,170,190)" />
	<text x="1015" y="475" fill="rgb(65,170,190)" font-size="18" font-family="Verdana" >110193_0_0003c3</text>
	<line x1="300" y1="425" x2="300" y2="325" stroke-width="3" stroke="rgb(65,170,190)" />
	<line x1="300" y1="325" x2="410" y2="325" stroke-width="3" stroke="rgb(65,170,190)" />
	<line x1="410" y1="325" x2="410" y2="275" stroke-width="3" stroke="rgb(65,170,190)" />
	<line x1="410" y1="275" x2="990" y2="275" stroke-width="3" stroke="rgb(65,170,190)" />
	<text x="1015" y="275" fill="rgb(65,170,190)" font-size="18" font-family="Verdana" >166361_0_001d7e</text>
	<line x1="410" y1="325" x2="410" y2="375" stroke-width="3" stroke="rgb(65,170,190)" />
	<line x1="410" y1="375" x2="520" y2="375" stroke-width="3" stroke="rgb(65,170,190)" />
	<line x1="532.5" y1="362.5" x2="507.5" y2="387.5" stroke-width="8.33333" stroke="rgb(65,170,190)" />
	<line x1="532.5" y1="387.5" x2="507.5" y2="362.5" stroke-width="8.33333" stroke="rgb(65,170,190)" />
	<line x1="190" y1="525" x2="190" y2="800" stroke-width="3" stroke="rgb(65,170,190)" />
	<line x1="190" y1="800" x2="300" y2="800" stroke-width="3" stroke="rgb(65,170,190)" />
	<line x1="300" y1="800" x2="300" y2="675" stroke-width="3" stroke="rgb(65,170,190)" />
	<line x1="300" y1="675" x2="410" y2="675" stroke-width="3" stroke="rgb(65,170,190)" />
	<line x1="410" y1="675" x2="410" y2="650" stroke-width="3" stroke="rgb(65,170,190)" />
	<line x1="410" y1="650" x2="440" y2="650" stroke-width="3" stroke="rgb(65,170,190)" />
	<line x1="440" y1="650" x2="440" y2="575" stroke-width="3" stroke="rgb(65,170,190)" />
	<line x1="440" y1="575" x2="990" y2="575" stroke-width="3" stroke="rgb(65,170,190)" />
	<text x="1015" y="575" fill="rgb(65,170,190)" font-size="18" font-family="Verdana" >7070_0_002d40</text>
	<line x1="440" y1="650" x2="440" y2="725" stroke-width="3" stroke="rgb(65,170,190)" />
	<line x1="440" y1="725" x2="990" y2="725" stroke-width="3" stroke="rgb(65,170,190)" />
	<text x="1015" y="725" fill="rgb(65,170,190)" font-size="18" font-family="Verdana" >41895_0_001c4d</text>
	<line x1="410" y1="675" x2="410" y2="675" stroke-width="3" stroke="rgb(65,170,190)" />
	<line x1="410" y1="675" x2="470" y2="675" stroke-width="3" stroke="rgb(65,170,190)" />
	<line x1="470" y1="675" x2="470" y2="750" stroke-width="3" stroke="rgb(65,170,190)" />
	<line x1="470" y1="750" x2="990" y2="750" stroke-width="3" stroke="rgb(65,170,190)" />
	<text x="1015" y="750" fill="rgb(65,170,190)" font-size="18" font-family="Verdana" >41895_0_001d86</text>
	<line x1="470" y1="675" x2="470" y2="600" stroke-width="3" stroke="rgb(65,170,190)" />
	<line x1="470" y1="600" x2="990" y2="600" stroke-width="3" stroke="rgb(65,170,190)" />
	<text x="1015" y="600" fill="rgb(65,170,190)" font-size="18" font-family="Verdana" >7070_0_002db6</text>
	<rect x="397.5" y="662.5" width="25" height="25" fill="rgb(65,170,190)" stroke-width="3" stroke="rgb(65,170,190)" />
	<line x1="300" y1="800" x2="300" y2="1025" stroke-width="3" stroke="rgb(65,170,190)" />
	<line x1="300" y1="1025" x2="410" y2="1025" stroke-width="3" stroke="rgb(65,170,190)" />
	<line x1="410" y1="1025" x2="410" y2="1125" stroke-width="3" stroke="rgb(65,170,190)" />
	<line x1="410" y1="1125" x2="520" y2="1125" stroke-width="3" stroke="rgb(65,170,190)" />
	<line x1="520" y1="1125" x2="520" y2="1075" stroke-width="3" stroke="rgb(65,170,190)" />
	<line x1="520" y1="1075" x2="990" y2="1075" stroke-width="3" stroke="rgb(65,170,190)" />
	<text x="1015" y="1075" fill="rgb(65,170,190)" font-size="18" font-family="Verdana" >116153_0_001171</text>
	<line x1="520" y1="1125" x2="520" y2="1375" stroke-width="3" stroke="rgb(65,170,190)" />
	<line x1="520" y1="1375" x2="630" y2="1375" stroke-width="3" stroke="rgb(65,170,190)" />
	<line x1="630" y1="1375" x2="630" y2="1475" stroke-width="3" stroke="rgb(65,170,190)" />
	<line x1="630" y1="1475" x2="740" y2="1475" stroke-width="3" stroke="rgb(65,170,190)" />
	<line x1="740" y1="1475" x2="740" y2="1425" stroke-width="3" stroke="rgb(65,170,190)" />
	<line x1="740" y1="1425" x2="990" y2="1425" stroke-width="3" stroke="rgb(65,170,190)" />
	<text x="1015" y="1425" fill="rgb(65,170,190)" font-size="18" font-family="Verdana" >217634_0_0027ac</text>
	<line x1="740" y1="1475" x2="740" y2="1575" stroke-width="3" stroke="rgb(65,170,190)" />
	<line x1="740" y1="1575" x2="850" y2="1575" stroke-width="3" stroke="rgb(65,170,190)" />
	<line x1="850" y1="1575" x2="850" y2="1625" stroke-width="3" stroke="rgb(65,170,190)" />
	<line x1="850" y1="1625" x2="990" y2="1625" stroke-width="3" stroke="rgb(65,170,190)" />
	<text x="1015" y="1625" fill="rgb(65,170,190)" font-size="18" font-family="Verdana" >50390_0_00063e</text>
	<line x1="850" y1="1575" x2="850" y2="1525" stroke-width="3" stroke="rgb(65,170,190)" />
	<line x1="850" y1="1525" x2="990" y2="1525" stroke-width="3" stroke="rgb(65,170,190)" />
	<text x="1015" y="1525" fill="rgb(65,170,190)" font-size="18" font-family="Verdana" >7539_0_0024c4</text>
	<line x1="630" y1="1375" x2="630" y2="1225" stroke-width="3" stroke="rgb(65,170,190)" />
	<line x1="630" y1="1225" x2="740" y2="1225" stroke-width="3" stroke="rgb(65,170,190)" />
	<line x1="740" y1="1225" x2="740" y2="1325" stroke-width="3" stroke="rgb(65,170,190)" />
	<line x1="740" y1="1325" x2="850" y2="1325" stroke-width="3" stroke="rgb(65,170,190)" />
	<line x1="850" y1="1325" x2="850" y2="1300" stroke-width="3" stroke="rgb(65,170,190)" />
	<line x1="850" y1="1300" x2="880" y2="1300" stroke-width="3" stroke="rgb(65,170,190)" />
	<line x1="880" y1="1300" x2="880" y2="1275" stroke-width="3" stroke="rgb(65,170,190)" />
	<line x1="880" y1="1275" x2="990" y2="1275" stroke-width="3" stroke="rgb(65,170,190)" />
	<text x="1015" y="1275" fill="rgb(65,170,190)" font-size="18" font-family="Verdana" >7048_0_0001a0</text>
	<line x1="880" y1="1300" x2="880" y2="1300" stroke-width="3" stroke="rgb(65,170,190)" />
	<line x1="880" y1="1300" x2="990" y2="1300" stroke-width="3" stroke="rgb(65,170,190)" />
	<text x="1015" y="1300" fill="rgb(65,170,190)" font-size="18" font-family="Verdana" >7048_0_00018b</text>
	<rect x="867.5" y="1287.5" width="25" height="25" fill="rgb(65,170,190)" stroke-width="3" stroke="rgb(65,170,190)" />
	<line x1="850" y1="1325" x2="850" y2="1325" stroke-width="3" stroke="rgb(65,170,190)" />
	<line x1="850" y1="1325" x2="990" y2="1325" stroke-width="3" stroke="rgb(65,170,190)" />
	<text x="1015" y="1325" fill="rgb(65,170,190)" font-size="18" font-family="Verdana" >7048_0_002551</text>
	<rect x="837.5" y="1312.5" width="25" height="25" fill="rgb(65,170,190)" stroke-width="3" stroke="rgb(65,170,190)" />
	<line x1="740" y1="1225" x2="740" y2="1175" stroke-width="3" stroke="rgb(65,170,190)" />
	<line x1="740" y1="1175" x2="990" y2="1175" stroke-width="3" stroke="rgb(65,170,190)" />
	<text x="1015" y="1175" fill="rgb(65,170,190)" font-size="18" font-family="Verdana" >77166_0_002957</text>
	<line x1="410" y1="1025" x2="410" y2="900" stroke-width="3" stroke="rgb(65,170,190)" />
	<line x1="410" y1="900" x2="520" y2="900" stroke-width="3" stroke="rgb(65,170,190)" />
	<line x1="520" y1="900" x2="520" y2="850" stroke-width="3" stroke="rgb(65,170,190)" />
	<line x1="520" y1="850" x2="990" y2="850" stroke-width="3" stroke="rgb(65,170,190)" />
	<text x="1015" y="850" fill="rgb(65,170,190)" font-size="18" font-family="Verdana" >41139_0_0030ac</text>
	<line x1="520" y1="900" x2="520" y2="975" stroke-width="3" stroke="rgb(65,170,190)" />
	<line x1="520" y1="975" x2="630" y2="975" stroke-width="3" stroke="rgb(65,170,190)" />
	<line x1="630" y1="975" x2="630" y2="950" stroke-width="3" stroke="rgb(65,170,190)" />
	<line x1="630" y1="950" x2="990" y2="950" stroke-width="3" stroke="rgb(65,170,190)" />
	<text x="1015" y="950" fill="rgb(65,170,190)" font-size="18" font-family="Verdana" >115357_0_000a81</text>
	<line x1="630" y1="975" x2="630" y2="975" stroke-width="3" stroke="rgb(65,170,190)" />
	<line x1="630" y1="975" x2="990" y2="975" stroke-width="3" stroke="rgb(65,170,190)" />
	<text x="1015" y="975" fill="rgb(65,170,190)" font-size="18" font-family="Verdana" >115357_0_00054b</text>
	<rect x="617.5" y="962.5" width="25" height="25" fill="rgb(65,170,190)" stroke-width="3" stroke="rgb(65,170,190)" />
	<polygon points="95.625,225 86.3204,220.408 84.8284,210.14 77.5858,217.57 67.3591,215.816 72.1875,225 67.3591,234.184 77.5858,232.43 84.8284,239.86 86.3204,229.592 95.625,225 " fill="rgb(255,255,255)" stroke-width="6.25" stroke="rgb(65,170,190)" />
</svg>
